<?xml version="1.0" encoding="UTF-8"?>
<svg id="Warstwa_1" data-name="Warstwa 1" xmlns="http://www.w3.org/2000/svg" viewBox="0 0 251.2591 595.2756">
  <g id="ggABGo.tif">
    <g>
      <path d="M96.8717,445.9135c1.0276-4.1168,2.2463-8.1978,3.0241-12.3614,.6568-3.5161,.7289-7.1378,1.2032-10.6936,.2657-1.9918,.4404-4.1425,1.3324-5.8719,1.6244-3.1496,2.5935-6.3352,2.1744-9.8441-.4329-3.6251,.9354-6.6433,2.7385-9.6197,.6767-1.1171,1.1653-2.4349,1.3941-3.7228,1.0854-6.1094,2.0622-12.2382,3.0559-18.3637,.5939-3.6606,1.2079-7.3196,1.7048-10.9939,.6669-4.9312,3.495-6.6426,8.1354-4.9569,1.2505,.4543,2.6445,.6383,3.9833,.6955,2.3652,.1009,4.7405,.0665,7.1082-.0126,7.6615-.2561,9.0399,1.1664,9.2953,9.0026,.0743,2.2811,.85,4.5435,1.3474,6.8049,.2716,1.2349,.839,2.4361,.9212,3.6759,.4679,7.0594,.721,14.1343,1.2628,21.1873,.4218,5.4905,.514,11.1346,1.9562,16.3784,1.1783,4.2844,1.5754,8.4361,1.5638,12.7508-.0169,6.2896,.48,12.4864,2.7764,18.4424,.854,2.2149-2.2489,7.4479-5.5157,8.576-5.328,1.8398-10.8047,3.2777-16.2794,4.6399-1.3206,.3286-2.8752-.4114-4.3297-.4692-2.4933-.0991-5.0781-.4535-7.466,.0514-2.5277,.5346-4.551,.0224-6.6462-1.1497-3.5948-2.0109-7.1551-4.1002-10.8506-5.9092-3.6338-1.7788-3.3753-4.8983-3.8898-8.2365Z"/>
      <path d="M57.799,549.605c.2094-.5848,.5248-2.0358,1.2139-3.2792,1.7694-3.1929,2.5337-6.5407,2.3757-10.1898-.1306-3.015-.031-5.9142,1.3588-8.8769,.8343-1.7784,.0865-4.3749-.1799-6.5759-.2415-1.9948-.8646-3.9402-1.1936-5.9283-.5254-3.1755-.9495-6.368-1.4098-9.5542-.1385-.9587-.4003-1.9277-.3538-2.8797,.1197-2.4473,2.0885-3.4275,4.237-2.1664,5.3669,3.1501,10.6786,6.399,16.1163,9.4208,1.4628,.8129,3.302,.9387,4.9601,1.4091,2.091,.5932,4.1827,1.1872,6.2558,1.839,.9773,.3073,1.8814,.8995,2.8719,1.104,3.2143,.6634,6.5449,.9066,9.6633,1.8605,6.2634,1.9159,12.4357,1.9693,18.9115,1.0459,5.7177-.8153,11.6246-.1927,17.4257-.5591,5.553-.3507,11.1079-.9683,16.5989-1.8588,2.1255-.3447,3.9926-2.146,6.1244-2.6191,7.2473-1.6083,13.6482-5.3068,20.5033-7.8591,1.1905-.4433,2.96-.3742,4.0544,.2162,1.6392,.8843,1.6351,2.6571,.9944,4.4097-2.1342,5.838-3.6491,11.8983-3.3477,18.09,.4185,8.5991-1.1582,17.5566,3.7879,25.5504,.4676,.7557,.0771,2.3603-.4447,3.2641-.2209,.3826-1.9261,.2351-2.7609-.1256-3.1736-1.3716-6.2708-2.9213-9.3897-4.4187-2.5452-1.2219-4.9948-2.7085-7.6404-3.6406-4.0141-1.4143-8.1376-3.3033-12.2585-3.4185-4.612-.129-8.3939-2.18-12.5862-3.1914-5.4183-1.3073-10.757-3.367-16.583-1.8669-1.6442,.4234-3.5896-.5139-5.3863-.4618-5.3001,.1538-10.5967,.4597-15.8906,.774-1.6561,.0983-3.3221,.3078-4.9413,.6606-1.3227,.2883-2.7781,.5955-3.8355,1.363-4.0255,2.9216-8.0606,4.6993-13.1852,2.6421-1.1957-.48-3.1619,.6399-4.6573,1.2917-5.7446,2.5037-11.4724,5.0513-17.1446,7.7147-3.0233,1.4196-4.2512,.85-4.2642-3.1858Z"/>
      <path d="M111.9035,191.7152c-1.1712-7.4165-2.3508-14.8318-3.5021-22.2514-.1345-.867-.3761-1.8463-.1177-2.6233,1.1938-3.5904-.0524-6.8379-1.4621-9.9393-1.321-2.9064-1.5951-5.6023,.1222-8.3273,1.8891-2.9975,1.4065-5.5065-.91-8.156-3.9117-4.4741-2.5145-12.9563,1.0977-14.4286,3.4154-1.3921,6.5381-3.635,10.6407-3.3254,2.5352,.1913,5.1414-.9387,7.7316-1.0315,9.2385-.3309,17.8595,2.3831,26.1812,6.0217,4.1971,1.8352,5.313,5.246,4.5612,9.7883-.8391,5.0694-1.233,10.2122-1.8462,15.32-.1374,1.1448-.2388,2.3242-.5982,3.4073-2.3682,7.1372-3.7789,14.3462-3.724,21.9741,.0273,3.7949-2.5273,7.5683-2.726,11.413-.4468,8.6455-4.7672,16.548-4.2874,25.3499,.221,4.0542-3.1454,6.6492-7.1262,6.414-4.7811-.2824-9.5695-.4822-14.3576-.5908-4.4513-.1009-4.9925-.7302-5.7448-5.2119-.6264-3.7316-1.8443-7.3598-2.6766-11.0617-.9323-4.1468-1.7255-8.3249-2.5792-12.4894,.4412-.0839,.8824-.1678,1.3236-.2517Z"/>
      <path d="M71.328,33.3434c7.7209,5.3697,15.5367,8.6642,23.8538,9.9457,6.5198,1.0046,12.7822,3.9943,19.6132,2.9346,.6551-.1016,1.4322-.0226,2.0357,.241,8.7693,3.8302,17.5404,1.9391,26.4164,.3616,5.7451-1.021,11.6407-1.1703,17.4519-1.8547,1.8648-.2196,3.6805-.8819,5.5085-1.3792,1.0173-.2768,1.9935-.7981,3.0228-.9225,5.4264-.656,10.5021-2.1507,15.1544-5.19,1.8899-1.2347,4.2265-1.8223,6.4149-2.5346,.5948-.1936,1.6317,.0093,2.0211,.4366,.3462,.3799,.3074,1.429,.0445,2.0011-4.5735,9.9516-3.1689,20.3653-2.1836,30.6692,.4108,4.296,1.9155,8.4808,2.7674,12.7473,.1367,.6845-.4118,2.0842-.8732,2.1951-1.094,.263-2.5035,.3009-3.4706-.191-3.7788-1.9221-7.2509-4.585-11.1812-6.0403-5.6869-2.1056-11.6917-3.3372-17.5212-5.0756-2.2935-.6839-4.5285-1.6233-6.7034-2.6336-3.2786-1.523-6.6253-1.4631-10.0907-.9722-1.6811,.2382-3.4206,.0689-5.1337,.0729-2.1804,.0051-4.3635,.0689-6.5404-.0187-3.3706-.1357-6.765-.7512-10.0991-.4989-7.3507,.5562-14.6707,1.5209-22.0005,2.3433-.4691,.0526-.911,.3256-1.372,.4765-7.3167,2.3961-14.666,4.6983-21.9315,7.2411-2.0276,.7096-3.7817,2.1777-5.714,3.1977-.8417,.4443-1.8164,.6358-2.7307,.9421-.2833-.9678-.9406-1.9983-.7911-2.8937,1.2624-7.5605,2.9108-15.0642,3.9321-22.6539,.4757-3.5349-.0623-7.2319-.3606-10.8372-.2073-2.5059-1.029-4.973-1.108-7.4724-.043-1.3591,.8916-2.7492,1.5689-4.6373Z"/>
      <path d="M165.5656,291.3072c-1.5431,10.8977-5.9619,19.2784-15.8759,24.0697-3.7266,1.801-7.3284,4.4601-11.2557,5.1168-7.4178,1.2403-14.7867,1.6235-22.3134-1.6453-7.0797-3.0747-13.2464-6.9375-18.635-12.297-2.0093-1.9985-3.0473-4.272-3.2668-7.2169-.1881-2.5237-1.0521-5.105-2.1242-7.4258-1.2007-2.5993-1.6274-4.9097-.0172-7.44,2.5093-3.9433,4.3018-8.5929,7.5556-11.7448,3.5113-3.4012,8.1019-6.046,12.6742-7.903,6.9123-2.8075,14.3962-3.5187,21.8591-3.0173,2.2624,.152,4.4965,1.2001,6.6749,2.0206,3.3483,1.261,6.6126,2.7451,9.9574,4.0162,4.8357,1.8378,6.9079,6.2495,9.5718,10.11,1.1545,1.6731,2.5179,3.312,3.191,5.1814,.969,2.6912,1.3949,5.5785,2.0042,8.1756Z"/>
      <path d="M210.4988,404.7673c-3.5642,.1852-7.1283,.478-10.6926,.4791-.8784,.0003-2.0949-.7338-2.5797-1.4973-2.6891-4.2348-5.1996-8.5834-7.7733-12.8917-.2979-.4987-.8144-.9635-.8817-1.4888-.9814-7.6555-5.9594-13.4688-9.058-20.1499-2.6869-5.7935-4.5703-11.9677-6.6823-18.018-.7974-2.2844,1.4694-5.3197,4.9839-7.0853,5.8414-2.9346,11.5861-1.5222,15.8582,3.4163,2.9277,3.3843,6.31,6.3762,9.514,9.518,1.3888,1.3619,3.2205,2.4306,4.184,4.0344,2.0009,3.3307,5.0573,4.8119,8.5215,5.5956,2.2083,.4995,2.9175,1.7577,3.8449,3.6995,1.8899,3.9573,4.3645,7.6626,6.8601,11.2911,1.4849,2.1591,3.3832,4.0597,5.2492,5.9222,2.1628,2.1588,1.8702,5.3735-1.7608,8.9155-5.2949,5.1652-12.5712,6.8754-19.4222,9.1056-.055-.2822-.1101-.5643-.1652-.8465Z"/>
      <path d="M234.2192,197.3642c-.58,.9963-.8869,1.9762-1.5418,2.5733-3.5634,3.2488-7.2515,6.3606-10.8137,9.6107-1.4924,1.3616-2.7663,2.9615-4.1644,4.4291-3.7973,3.986-7.4335,8.1475-11.459,11.888-4.6492,4.3201-9.6999,8.2039-14.4612,12.4079-1.5239,1.3455-2.642,3.1429-4.0167,4.6694-1.8016,2.0006-3.4366,1.8602-5.0707-.1263-2.4665-2.9985-4.9464-5.9999-7.6253-8.8039-1.7653-1.8478-2.477-3.3512-.4561-5.503,.8809-.938,1.4934-2.3608,1.7117-3.6511,.9545-5.6419,4.5886-9.8952,7.2172-14.6832,2.1406-3.8992,3.7144-8.1157,5.9246-11.9701,3.3761-5.8878,5.8317-12.4605,11.5586-16.7286,2.1582-1.6084,4.4305-1.6638,7.1436-1.3838,5.634,.5815,10.4471,3.0115,15.294,5.5113,1.0983,.5664,2.1079,1.3987,2.9861,2.2807,1.9986,2.0071,3.9471,4.0716,5.7983,6.2149,.7806,.9038,1.264,2.065,1.9748,3.2648Z"/>
      <path d="M49.4988,398.8671c-10.0798-.2442-17.9777-4.8982-24.3793-12.3904-2.7488-3.2171-1.4118-8.2298,2.7013-11.3049,5.4553-4.0787,10.871-8.1204,14.3836-14.2828,1.2432-2.1811,3.8555-3.5579,5.7621-5.3862,3.1733-3.0429,6.1352-6.3244,9.4601-9.1861,3.0623-2.6357,6.4064-4.9705,9.7801-7.2051,1.9277-1.2768,3.9889-1.1789,5.9391,.4902,2.5034,2.1427,5.2476,4.0019,7.7694,6.1246,2.2814,1.9203,2.4151,4.4764,1.0862,6.9089-2.8235,5.1683-5.9015,10.1964-8.7773,15.3369-.9745,1.742-1.604,3.6739-2.4777,5.4769-3.0815,6.3591-5.8577,12.8998-9.3981,18.9939-3.8347,6.6008-4.2296,6.4579-11.8495,6.4241Z"/>
      <path d="M51.7098,175.6713c3.5124,1.1336,7.2148,2.253,10.8465,3.5678,.6793,.2459,1.191,1.2129,1.5858,1.9514,4.774,8.9297,9.5365,17.8658,14.2471,26.8292,2.0823,3.9624,3.9932,8.0151,6.0743,11.9782,1.0326,1.9663,2.267,3.8269,3.4231,5.7274,1.1968,1.9673,1.0146,3.9097-.7217,5.289-2.8473,2.2619-5.8522,4.3383-8.8872,6.3464-4.0063,2.6508-6.3434,1.8778-8.8497-2.1346-1.0805-1.7298-2.9289-2.9939-4.4949-4.3952-.4879-.4366-1.3208-.5001-1.7797-.9536-4.4368-4.3846-8.9804-8.6752-13.1925-13.2695-5.2385-5.714-10.171-11.7086-15.28-17.5431-1.8657-2.1306-3.9063-4.1074-5.7775-6.2336-1.3172-1.4968-1.9584-2.977-.3697-4.9458,5.9027-7.3153,14.0408-10.0989,23.176-12.214Z"/>
      <path d="M234.9474,267.7411c-.698,1.9686-1.5128,3.9048-2.0658,5.9134-.773,2.8075-1.6302,5.638-1.9483,8.5145-.5153,4.6592-1.2295,9.4268-.7531,14.0338,.6536,6.3202,.455,12.888,3.4302,18.8274,.6517,1.301,1.1731,2.6858,1.5946,4.0805,.9522,3.1504-2.3363,7.0143-5.5343,6.2494-6.2062-1.4843-12.4532-2.944-18.4624-5.047-3.1103-1.0884-5.9131-3.332-8.5031-5.4791-.827-.6856-.9856-2.8569-.6576-4.1462,1.4648-5.7586,3.3325-11.4137,4.8262-17.1657,1.1514-4.4341-.6284-8.5487-1.9654-12.6657-.603-1.8567-1.3885-3.6635-1.8634-5.5505-1.0289-4.0878,.4676-6.919,4.395-8.1224,6.0991-1.8687,12.2206-3.6785,18.3907-5.2903,1.6501-.431,3.5473-.2755,5.2675,.0034,3.2131,.521,3.4742,3.025,3.8491,5.8445Z"/>
      <path d="M31.4539,256.7537c4.2593,1.5163,8.5163,3.0391,12.7789,4.5462,2.0923,.7398,4.1659,1.5544,6.2992,2.1515,3.8845,1.0871,4.9617,3.2608,3.5713,6.9643-.6003,1.599-.7429,3.376-1.0404,5.0814-.1854,1.0629-.0227,2.254-.4417,3.1981-3.5927,8.0944-1.6763,16.1592-.0543,24.2474,.2849,1.4209,.4819,2.8916,.458,4.335-.0359,2.1702-1.4179,3.1111-3.4362,3.7033-3.4765,1.02-6.861,2.3528-10.2896,3.5384-3.3894,1.1721-6.7086,2.7243-10.1957,3.3985-6.3585,1.2294-9.744-3.1113-7.1662-9.2391,2.5386-6.0346,4.2687-12.1244,3.8901-18.7257-.0421-.7342,.2854-1.5124,.5366-2.2371,1.9345-5.58,.8922-11.1641-.0016-16.7323-.474-2.9527-1.1947-5.8651-1.707-8.8125-.3595-2.0685,1.7328-4.5136,3.8762-4.6406,.8859-.0525,1.7775-.0087,2.6666-.0087,.0853-.256,.1706-.512,.2558-.768Z"/>
    </g>
  </g>
</svg>